<svg width="28" height="28" viewBox="0 0 28 28" fill="none" xmlns="http://www.w3.org/2000/svg">
<g clip-path="url(#clip0_97_18)">
<g filter="url(#filter0_d_97_18)">
<path d="M0.3 8.76523C0.134314 8.76523 0 8.63091 0 8.46523V0.3C0 0.134315 0.134315 0 0.3 0H8.46524C8.63092 0 8.76524 0.134315 8.76524 0.3V2.59253C8.76524 2.75821 8.63093 2.89253 8.46524 2.89253H3.19253C3.02684 2.89253 2.89253 3.02684 2.89253 3.19253V8.46523C2.89253 8.63091 2.75821 8.76523 2.59253 8.76523H0.3Z" fill="url(#paint0_linear_97_18)"/>
<path d="M27.7 20.3637C27.8657 20.3637 28 20.498 28 20.6637V27.7C28 27.8657 27.8657 28 27.7 28H20.6636C20.498 28 20.3636 27.8657 20.3636 27.7V25.78C20.3636 25.6143 20.498 25.48 20.6636 25.48H25.18C25.3457 25.48 25.48 25.3457 25.48 25.18V20.6637C25.48 20.498 25.6143 20.3637 25.78 20.3637H27.7Z" fill="url(#paint1_linear_97_18)"/>
<path d="M7.63638 27.7C7.63638 27.8657 7.50207 28 7.33638 28H0.3C0.134315 28 0 27.8657 0 27.7V20.6637C0 20.498 0.134315 20.3637 0.3 20.3637H2.22001C2.38569 20.3637 2.52001 20.498 2.52001 20.6637V25.18C2.52001 25.3457 2.65432 25.48 2.82001 25.48H7.33638C7.50207 25.48 7.63638 25.6143 7.63638 25.78V27.7Z" fill="url(#paint2_linear_97_18)"/>
<path d="M20.3636 0.3C20.3636 0.134314 20.498 0 20.6636 0H27.7C27.8657 0 28 0.134315 28 0.3V7.33637C28 7.50206 27.8657 7.63637 27.7 7.63637H25.78C25.6143 7.63637 25.48 7.50206 25.48 7.33637V2.82C25.48 2.65432 25.3457 2.52 25.18 2.52H20.6636C20.498 2.52 20.3636 2.38569 20.3636 2.22V0.3Z" fill="url(#paint3_linear_97_18)"/>
<path d="M5.391 5.09096C5.22532 5.09096 5.091 5.22527 5.091 5.39096V12.4273C5.091 12.593 5.22532 12.7273 5.391 12.7273H12.4274C12.5931 12.7273 12.7274 12.593 12.7274 12.4273V5.39096C12.7274 5.22527 12.5931 5.09096 12.4274 5.09096H5.391ZM10.8183 10.5182C10.8183 10.6839 10.684 10.8182 10.5183 10.8182H7.3001C7.13441 10.8182 7.0001 10.6839 7.0001 10.5182V7.30005C7.0001 7.13437 7.13441 7.00005 7.3001 7.00005H10.5183C10.684 7.00005 10.8183 7.13437 10.8183 7.30005V10.5182Z" fill="url(#paint4_linear_97_18)"/>
<path d="M15.5729 5.09096C15.4072 5.09096 15.2729 5.22527 15.2729 5.39096V12.4273C15.2729 12.593 15.4072 12.7273 15.5729 12.7273H22.6092C22.7749 12.7273 22.9092 12.593 22.9092 12.4273V5.39096C22.9092 5.22527 22.7749 5.09096 22.6092 5.09096H15.5729ZM20.9639 10.5306C20.9639 10.6963 20.8296 10.8306 20.6639 10.8306H17.4457C17.28 10.8306 17.1457 10.6963 17.1457 10.5306V7.31246C17.1457 7.14677 17.28 7.01246 17.4457 7.01246H20.6639C20.8296 7.01246 20.9639 7.14677 20.9639 7.31246V10.5306Z" fill="url(#paint5_linear_97_18)"/>
<path d="M5.391 15.2728C5.22532 15.2728 5.091 15.4071 5.091 15.5728V22.6091C5.091 22.7748 5.22532 22.9091 5.391 22.9091H12.4274C12.5931 22.9091 12.7274 22.7748 12.7274 22.6091V15.5728C12.7274 15.4071 12.5931 15.2728 12.4274 15.2728H5.391ZM10.8183 20.7C10.8183 20.8657 10.684 21 10.5183 21H7.3001C7.13441 21 7.0001 20.8657 7.0001 20.7V17.4819C7.0001 17.3162 7.13441 17.1819 7.3001 17.1819H10.5183C10.684 17.1819 10.8183 17.3162 10.8183 17.4819V20.7Z" fill="url(#paint6_linear_97_18)"/>
<path d="M17.8199 15.2728H15.2729V17.8182H17.8199V15.2728Z" fill="url(#paint7_linear_97_18)"/>
<path d="M17.8199 20.3637H15.2729V22.9091H17.8199V20.3637Z" fill="url(#paint8_linear_97_18)"/>
<path d="M20.3652 17.8182H17.8182V20.3637H20.3652V17.8182Z" fill="url(#paint9_linear_97_18)"/>
<path d="M22.9107 17.8182H20.3636V20.3637H22.9107V17.8182Z" fill="url(#paint10_linear_97_18)"/>
<path d="M22.9107 20.3637H20.3636V22.9091H22.9107V20.3637Z" fill="url(#paint11_linear_97_18)"/>
</g>
</g>
<defs>
<filter id="filter0_d_97_18" x="-2" y="-2" width="32" height="32" filterUnits="userSpaceOnUse" color-interpolation-filters="sRGB">
<feFlood flood-opacity="0" result="BackgroundImageFix"/>
<feColorMatrix in="SourceAlpha" type="matrix" values="0 0 0 0 0 0 0 0 0 0 0 0 0 0 0 0 0 0 127 0" result="hardAlpha"/>
<feOffset/>
<feGaussianBlur stdDeviation="1"/>
<feComposite in2="hardAlpha" operator="out"/>
<feColorMatrix type="matrix" values="0 0 0 0 0 0 0 0 0 0 0 0 0 0 0 0 0 0 0.25 0"/>
<feBlend mode="normal" in2="BackgroundImageFix" result="effect1_dropShadow_97_18"/>
<feBlend mode="normal" in="SourceGraphic" in2="effect1_dropShadow_97_18" result="shape"/>
</filter>
<linearGradient id="paint0_linear_97_18" x1="4.38262" y1="0" x2="4.38262" y2="8.76523" gradientUnits="userSpaceOnUse">
<stop stop-color="#F28017"/>
<stop offset="1" stop-color="#EFA35D"/>
</linearGradient>
<linearGradient id="paint1_linear_97_18" x1="24.1818" y1="20.3637" x2="24.1818" y2="28" gradientUnits="userSpaceOnUse">
<stop stop-color="#F28017"/>
<stop offset="1" stop-color="#EFA35D"/>
</linearGradient>
<linearGradient id="paint2_linear_97_18" x1="3.81819" y1="20.3637" x2="3.81819" y2="28" gradientUnits="userSpaceOnUse">
<stop stop-color="#F28017"/>
<stop offset="1" stop-color="#EFA35D"/>
</linearGradient>
<linearGradient id="paint3_linear_97_18" x1="24.1818" y1="0" x2="24.1818" y2="7.63637" gradientUnits="userSpaceOnUse">
<stop stop-color="#F28017"/>
<stop offset="1" stop-color="#EFA35D"/>
</linearGradient>
<linearGradient id="paint4_linear_97_18" x1="8.90919" y1="5.09096" x2="8.90919" y2="12.7273" gradientUnits="userSpaceOnUse">
<stop stop-color="#F28017"/>
<stop offset="1" stop-color="#EFA35D"/>
</linearGradient>
<linearGradient id="paint5_linear_97_18" x1="19.091" y1="5.09096" x2="19.091" y2="12.7273" gradientUnits="userSpaceOnUse">
<stop stop-color="#F28017"/>
<stop offset="1" stop-color="#EFA35D"/>
</linearGradient>
<linearGradient id="paint6_linear_97_18" x1="8.90919" y1="15.2728" x2="8.90919" y2="22.9091" gradientUnits="userSpaceOnUse">
<stop stop-color="#F28017"/>
<stop offset="1" stop-color="#EFA35D"/>
</linearGradient>
<linearGradient id="paint7_linear_97_18" x1="16.5464" y1="15.2728" x2="16.5464" y2="17.8182" gradientUnits="userSpaceOnUse">
<stop stop-color="#F28017"/>
<stop offset="1" stop-color="#EFA35D"/>
</linearGradient>
<linearGradient id="paint8_linear_97_18" x1="16.5464" y1="20.3637" x2="16.5464" y2="22.9091" gradientUnits="userSpaceOnUse">
<stop stop-color="#F28017"/>
<stop offset="1" stop-color="#EFA35D"/>
</linearGradient>
<linearGradient id="paint9_linear_97_18" x1="19.0917" y1="17.8182" x2="19.0917" y2="20.3637" gradientUnits="userSpaceOnUse">
<stop stop-color="#F28017"/>
<stop offset="1" stop-color="#EFA35D"/>
</linearGradient>
<linearGradient id="paint10_linear_97_18" x1="21.6372" y1="17.8182" x2="21.6372" y2="20.3637" gradientUnits="userSpaceOnUse">
<stop stop-color="#F28017"/>
<stop offset="1" stop-color="#EFA35D"/>
</linearGradient>
<linearGradient id="paint11_linear_97_18" x1="21.6372" y1="20.3637" x2="21.6372" y2="22.9091" gradientUnits="userSpaceOnUse">
<stop stop-color="#F28017"/>
<stop offset="1" stop-color="#EFA35D"/>
</linearGradient>
<clipPath id="clip0_97_18">
<rect width="28" height="28" fill="white"/>
</clipPath>
</defs>
</svg>
